{
  "asset": {
    "version": "2.0",
    "generator": "THREE.GLTFExporter"
  },
  "scenes": [
    {
      "name": "Scene",
      "nodes": [
        0,
        1,
        2,
        10
      ]
    }
  ],
  "scene": 0,
  "nodes": [
    {
      "matrix": [
        1,
        0,
        0,
        0,
        0,
        1,
        0,
        0,
        0,
        0,
        1,
        0,
        7.350533400977982,
        15.569087940023712,
        0,
        1
      ],
      "name": "AmbientLight"
    },
    {
      "matrix": [
        1,
        0,
        0,
        0,
        0,
        1,
        0,
        0,
        0,
        0,
        1,
        0,
        3.8094827828321236,
        15.716685129118648,
        2.682817467837304,
        1
      ],
      "name": "DirectionalLight",
      "extensions": {
        "KHR_lights_punctual": {
          "light": 0
        }
      }
    },
    {
      "matrix": [
        0.8512839470180308,
        0,
        0,
        0,
        0,
        1.8902300769463993e-16,
        -0.8512839470180308,
        0,
        0,
        0.8512839470180308,
        1.8902300769463993e-16,
        0,
        0,
        7.586348555935319,
        0,
        1
      ],
      "name": "crystal-pendant-2022.dae"
    },
    {
      "matrix": [
        3.75,
        0,
        0,
        0,
        0,
        3.55,
        0,
        0,
        0,
        0,
        3.7537896137269637,
        0,
        0,
        3.4531735456164476,
        0,
        1
      ],
      "name": "defaultMaterial",
      "extras": {
        "name": "defaultMaterial"
      },
      "mesh": 0
    },
    {
      "name": "Pillar_lp_polypen_Pillar_hp_polypen002",
      "extras": {
        "name": "Pillar_lp_polypen_Pillar_hp_polypen.002"
      },
      "children": [
        3
      ]
    },
    {
      "matrix": [
        1,
        0,
        0,
        0,
        0,
        -1.3435885655173873e-7,
        1.0000001343588565,
        0,
        0,
        -1.0000001343588565,
        -1.3435885655173873e-7,
        0,
        0,
        0,
        0,
        1
      ],
      "name": "Collada_visual_scene_group",
      "extras": {
        "name": "Collada visual scene group"
      },
      "children": [
        4
      ]
    },
    {
      "matrix": [
        1,
        0,
        0,
        0,
        0,
        -1.3435885655173873e-7,
        -1.0000001343588565,
        0,
        0,
        1.0000001343588565,
        -1.3435885655173873e-7,
        0,
        0,
        0,
        0,
        1
      ],
      "name": "Sketchfab_model",
      "extras": {
        "name": "Sketchfab_model"
      },
      "children": [
        5
      ]
    },
    {
      "matrix": [
        -0.7181428805688668,
        0,
        0,
        0,
        0,
        1.5945971089190752e-16,
        -0.7181426945534017,
        0,
        0,
        0.7181428274873549,
        1.5945974040917464e-16,
        0,
        -1.86265e-9,
        8.299859440997704,
        0,
        1
      ],
      "name": "Cube.001",
      "mesh": 1
    },
    {
      "matrix": [
        0.7110867,
        0,
        0,
        0,
        0,
        1.578929653689526e-16,
        0.7110867000000376,
        0,
        0,
        -0.7110867000000376,
        1.578929653689526e-16,
        0,
        0,
        8.265455726129497,
        1.19209e-7,
        1
      ],
      "name": "Torus",
      "mesh": 2
    },
    {
      "matrix": [
        1,
        0,
        0,
        0,
        0,
        1,
        0,
        0,
        0,
        0,
        1,
        0,
        0,
        -0.38099383587439295,
        0,
        1
      ],
      "name": "Group",
      "children": [
        7,
        8
      ]
    },
    {
      "name": "pillar.gltf",
      "children": [
        6,
        9
      ]
    }
  ],
  "extensions": {
    "KHR_lights_punctual": {
      "lights": [
        {
          "name": "DirectionalLight",
          "color": [
            0.9911020971136257,
            0.9911020971136257,
            0.9911020971136257
          ],
          "intensity": 1,
          "type": "directional"
        }
      ]
    }
  },
  "bufferViews": [
    {
      "buffer": 0,
      "byteOffset": 0,
      "byteLength": 1824,
      "target": 34962,
      "byteStride": 12
    },
    {
      "buffer": 0,
      "byteOffset": 1824,
      "byteLength": 1824,
      "target": 34962,
      "byteStride": 12
    },
    {
      "buffer": 0,
      "byteOffset": 3648,
      "byteLength": 1216,
      "target": 34962,
      "byteStride": 8
    },
    {
      "buffer": 0,
      "byteOffset": 4864,
      "byteLength": 1296,
      "target": 34963
    },
    {
      "buffer": 0,
      "byteOffset": 6160,
      "byteLength": 864,
      "target": 34962,
      "byteStride": 12
    },
    {
      "buffer": 0,
      "byteOffset": 7024,
      "byteLength": 864,
      "target": 34962,
      "byteStride": 12
    },
    {
      "buffer": 0,
      "byteOffset": 7888,
      "byteLength": 576,
      "target": 34962,
      "byteStride": 8
    },
    {
      "buffer": 0,
      "byteOffset": 8464,
      "byteLength": 24552,
      "target": 34962,
      "byteStride": 12
    },
    {
      "buffer": 0,
      "byteOffset": 33016,
      "byteLength": 24552,
      "target": 34962,
      "byteStride": 12
    },
    {
      "buffer": 0,
      "byteOffset": 57568,
      "byteLength": 16368,
      "target": 34962,
      "byteStride": 8
    }
  ],
  "buffers": [
    {
      "byteLength": 73936,
      "uri": "data:application/octet-stream;base64,"
    }
  ],
  "accessors": [
    {
      "bufferView": 0,
      "componentType": 5126,
      "count": 152,
      "max": [
        0.42369401454925537,
        1,
        0.4233059883117676
      ],
      "min": [
        -0.42369401454925537,
        -1,
        -0.4233059883117676
      ],
      "type": "VEC3"
    },
    {
      "bufferView": 1,
      "componentType": 5126,
      "count": 152,
      "max": [
        0.9407545924186707,
        0.9783257246017456,
        0.9592339396476746
      ],
      "min": [
        -0.961790919303894,
        -0.9999520182609558,
        -0.9709126949310303
      ],
      "type": "VEC3"
    },
    {
      "bufferView": 2,
      "componentType": 5126,
      "count": 152,
      "max": [
        0.9782000184059143,
        0.9811999797821045
      ],
      "min": [
        0.033900000154972076,
        0.023000001907348633
      ],
      "type": "VEC2"
    },
    {
      "bufferView": 3,
      "componentType": 5123,
      "count": 648,
      "max": [
        151
      ],
      "min": [
        0
      ],
      "type": "SCALAR"
    },
    {
      "bufferView": 4,
      "componentType": 5126,
      "count": 72,
      "max": [
        1.391793966293335,
        1.171308994293213,
        6.698713779449463
      ],
      "min": [
        -1.3432530164718628,
        -1.400189995765686,
        1.529168963432312
      ],
      "type": "VEC3"
    },
    {
      "bufferView": 5,
      "componentType": 5126,
      "count": 72,
      "max": [
        0.971219003200531,
        0.9801120758056641,
        0.4875713884830475
      ],
      "min": [
        -0.9863743782043457,
        -0.9558556079864502,
        -0.16769780218601227
      ],
      "type": "VEC3"
    },
    {
      "bufferView": 6,
      "componentType": 5126,
      "count": 72,
      "max": [
        0.7238798141479492,
        0.4463275969028473
      ],
      "min": [
        0.0048694610595703125,
        0.0048694610595703125
      ],
      "type": "VEC2"
    },
    {
      "bufferView": 7,
      "componentType": 5126,
      "count": 2046,
      "max": [
        1.4164589643478394,
        1.4591540098190308,
        0.10080169886350632
      ],
      "min": [
        -1.4351030588150024,
        -1.3830959796905518,
        -2.8735880851745605
      ],
      "type": "VEC3"
    },
    {
      "bufferView": 8,
      "componentType": 5126,
      "count": 2046,
      "max": [
        0.9909430742263794,
        0.9928863048553467,
        0.9995324015617371
      ],
      "min": [
        -0.9923037886619568,
        -0.991988480091095,
        -0.9999328851699829
      ],
      "type": "VEC3"
    },
    {
      "bufferView": 9,
      "componentType": 5126,
      "count": 2046,
      "max": [
        0.9951304793357849,
        0.9323928952217102
      ],
      "min": [
        0.0048694610595703125,
        0.0048694610595703125
      ],
      "type": "VEC2"
    }
  ],
  "materials": [
    {
      "pbrMetallicRoughness": {
        "metallicFactor": 0,
        "roughnessFactor": 0.9834222793579102,
        "metallicRoughnessTexture": {
          "index": 0,
          "channel": 0
        },
        "baseColorTexture": {
          "index": 1,
          "texCoord": 0
        }
      },
      "normalTexture": {
        "index": 2,
        "texCoord": 0
      },
      "occlusionTexture": {
        "index": 0,
        "texCoord": 0
      },
      "doubleSided": true,
      "name": "mat_pillar"
    },
    {
      "pbrMetallicRoughness": {
        "baseColorFactor": [
          1,
          1,
          1,
          0.98
        ],
        "metallicFactor": 0,
        "roughnessFactor": 1,
        "metallicRoughnessTexture": {
          "index": 3,
          "channel": 0
        },
        "baseColorTexture": {
          "index": 4,
          "texCoord": 0
        }
      },
      "normalTexture": {
        "index": 5,
        "texCoord": 0
      },
      "alphaMode": "BLEND"
    },
    {
      "pbrMetallicRoughness": {
        "metallicFactor": 0.46,
        "roughnessFactor": 0,
        "metallicRoughnessTexture": {
          "index": 6,
          "channel": 0
        },
        "baseColorTexture": {
          "index": 7,
          "texCoord": 0
        }
      },
      "normalTexture": {
        "index": 8,
        "texCoord": 0
      }
    }
  ],
  "textures": [
    {
      "sampler": 0,
      "source": 0,
      "name": "mat_pillar_metallicRoughness"
    },
    {
      "sampler": 1,
      "source": 1,
      "name": "mat_pillar_baseColor"
    },
    {
      "sampler": 2,
      "source": 2,
      "name": "mat_pillar_normal"
    },
    {
      "sampler": 3,
      "source": 3
    },
    {
      "sampler": 4,
      "source": 4
    },
    {
      "sampler": 5,
      "source": 5
    },
    {
      "sampler": 6,
      "source": 6
    },
    {
      "sampler": 7,
      "source": 7
    },
    {
      "sampler": 8,
      "source": 8
    }
  ],
  "samplers": [
    {
      "magFilter": 9729,
      "minFilter": 9987,
      "wrapS": 10497,
      "wrapT": 10497
    },
    {
      "magFilter": 9729,
      "minFilter": 9987,
      "wrapS": 10497,
      "wrapT": 10497
    },
    {
      "magFilter": 9729,
      "minFilter": 9987,
      "wrapS": 10497,
      "wrapT": 10497
    },
    {
      "magFilter": 9729,
      "minFilter": 9987,
      "wrapS": 33071,
      "wrapT": 33071
    },
    {
      "magFilter": 9729,
      "minFilter": 9987,
      "wrapS": 33071,
      "wrapT": 33071
    },
    {
      "magFilter": 9729,
      "minFilter": 9987,
      "wrapS": 33071,
      "wrapT": 33071
    },
    {
      "magFilter": 9729,
      "minFilter": 9987,
      "wrapS": 33071,
      "wrapT": 33071
    },
    {
      "magFilter": 9729,
      "minFilter": 9987,
      "wrapS": 33071,
      "wrapT": 33071
    },
    {
      "magFilter": 9729,
      "minFilter": 9987,
      "wrapS": 33071,
      "wrapT": 33071
    }
  ],
  "images": [
    {
      "mimeType": "image/png",
      "uri": "data:image/png;base64,"
    },
    {
      "mimeType": "image/jpeg",
      "uri": "data:image/jpeg;base64,"
    },
    {
      "mimeType": "image/jpeg",
      "uri": "data:image/jpeg;base64,"
    },
    {
      "mimeType": "image/png",
      "uri": "data:image/png;base64,"
    },
    {
      "mimeType": "image/png",
      "uri": "data:image/png;base64,"
    },
    {
      "mimeType": "image/png",
      "uri": "data:image/png;base64,"
    },
    {
      "mimeType": "image/png",
      "uri": "data:image/png;base64,"
    },
    {
      "mimeType": "image/png",
      "uri": "data:image/png;base64,"
    },
    {
      "mimeType": "image/png",
      "uri": "data:image/png;base64,"
    }
  ],
  "meshes": [
    {
      "primitives": [
        {
          "mode": 4,
          "attributes": {
            "POSITION": 0,
            "NORMAL": 1,
            "TEXCOORD_0": 2
          },
          "indices": 3,
          "material": 0
        }
      ]
    },
    {
      "primitives": [
        {
          "mode": 4,
          "attributes": {
            "POSITION": 4,
            "NORMAL": 5,
            "TEXCOORD_0": 6
          },
          "material": 1
        }
      ]
    },
    {
      "primitives": [
        {
          "mode": 4,
          "attributes": {
            "POSITION": 7,
            "NORMAL": 8,
            "TEXCOORD_0": 9
          },
          "material": 2
        }
      ]
    }
  ],
  "extensionsUsed": [
    "KHR_lights_punctual"
  ]
}