{
    "asset" : {
        "generator" : "Khronos glTF Blender I/O v1.6.16",
        "version" : "2.0"
    },
    "scene" : 0,
    "scenes" : [
        {
            "name" : "Scene",
            "nodes" : [
                4
            ]
        }
    ],
    "nodes" : [
        {
            "mesh" : 0,
            "name" : "defaultMaterial",
            "rotation" : [
                0,
                0.7071068286895752,
                0,
                0.7071067094802856
            ],
            "scale" : [
                3.750000476837158,
                3.549999952316284,
                3.7537901401519775
            ]
        },
        {
            "mesh" : 1,
            "name" : "Cube001",
            "rotation" : [
                0.7071068286895752,
                0,
                0,
                0.7071067094802856
            ],
            "scale" : [
                -0.7181428670883179,
                -0.7181428074836731,
                -0.7181429266929626
            ],
            "translation" : [
                0,
                0.3809938430786133,
                0
            ]
        },
        {
            "mesh" : 2,
            "name" : "Torus",
            "rotation" : [
                0.7071068286895752,
                0,
                0,
                0.7071067094802856
            ],
            "scale" : [
                0.7110866904258728,
                0.7110868096351624,
                0.7110868096351624
            ],
            "translation" : [
                0,
                0.3809938430786133,
                0
            ]
        },
        {
            "children" : [
                1,
                2
            ],
            "name" : "Group",
            "translation" : [
                0,
                0.03264729678630829,
                0
            ]
        },
        {
            "children" : [
                0,
                3
            ],
            "name" : "archedPedestal.gltf",
            "scale" : [
                0.45495089888572693,
                0.45495089888572693,
                0.45495089888572693
            ]
        }
    ],
    "materials" : [
        {
            "doubleSided" : true,
            "name" : "mat_pillar.001",
            "normalTexture" : {
                "index" : 0
            },
            "occlusionTexture" : {
                "index" : 1
            },
            "pbrMetallicRoughness" : {
                "baseColorTexture" : {
                    "index" : 2
                },
                "metallicFactor" : 0,
                "metallicRoughnessTexture" : {
                    "index" : 1
                },
                "roughnessFactor" : 0.9834222793579102
            }
        },
        {
            "alphaMode" : "BLEND",
            "name" : "Material_1.001",
            "normalTexture" : {
                "index" : 3
            },
            "pbrMetallicRoughness" : {
                "baseColorFactor" : [
                    1,
                    1,
                    1,
                    0.9800000190734863
                ],
                "baseColorTexture" : {
                    "index" : 4
                },
                "metallicFactor" : 0,
                "metallicRoughnessTexture" : {
                    "index" : 5
                }
            }
        },
        {
            "name" : "Material_2.001",
            "normalTexture" : {
                "index" : 6
            },
            "pbrMetallicRoughness" : {
                "baseColorTexture" : {
                    "index" : 7
                },
                "metallicFactor" : 0.46000000834465027,
                "metallicRoughnessTexture" : {
                    "index" : 8
                },
                "roughnessFactor" : 0
            }
        }
    ],
    "meshes" : [
        {
            "name" : "Mesh_1",
            "primitives" : [
                {
                    "attributes" : {
                        "POSITION" : 0,
                        "NORMAL" : 1,
                        "TEXCOORD_0" : 2
                    },
                    "indices" : 3,
                    "material" : 0
                }
            ]
        },
        {
            "name" : "Mesh_2",
            "primitives" : [
                {
                    "attributes" : {
                        "POSITION" : 4,
                        "NORMAL" : 5,
                        "TEXCOORD_0" : 6
                    },
                    "indices" : 7,
                    "material" : 1
                }
            ]
        },
        {
            "name" : "Mesh_3",
            "primitives" : [
                {
                    "attributes" : {
                        "POSITION" : 8,
                        "NORMAL" : 9,
                        "TEXCOORD_0" : 10
                    },
                    "indices" : 11,
                    "material" : 2
                }
            ]
        }
    ],
    "textures" : [
        {
            "sampler" : 0,
            "source" : 0
        },
        {
            "sampler" : 0,
            "source" : 1
        },
        {
            "sampler" : 0,
            "source" : 2
        },
        {
            "sampler" : 1,
            "source" : 3
        },
        {
            "sampler" : 1,
            "source" : 4
        },
        {
            "sampler" : 1,
            "source" : 5
        },
        {
            "sampler" : 1,
            "source" : 6
        },
        {
            "sampler" : 1,
            "source" : 7
        },
        {
            "sampler" : 1,
            "source" : 8
        }
    ],
    "images" : [
        {
            "bufferView" : 4,
            "mimeType" : "image/jpeg",
            "name" : "Image_6"
        },
        {
            "bufferView" : 5,
            "mimeType" : "image/png",
            "name" : "Image_4"
        },
        {
            "bufferView" : 6,
            "mimeType" : "image/jpeg",
            "name" : "Image_5"
        },
        {
            "bufferView" : 11,
            "mimeType" : "image/png",
            "name" : "Image_9"
        },
        {
            "bufferView" : 12,
            "mimeType" : "image/png",
            "name" : "Image_8"
        },
        {
            "bufferView" : 13,
            "mimeType" : "image/png",
            "name" : "Image_7"
        },
        {
            "bufferView" : 18,
            "mimeType" : "image/png",
            "name" : "Image_12"
        },
        {
            "bufferView" : 19,
            "mimeType" : "image/png",
            "name" : "Image_11"
        },
        {
            "bufferView" : 20,
            "mimeType" : "image/png",
            "name" : "Image_10"
        }
    ],
    "accessors" : [
        {
            "bufferView" : 0,
            "componentType" : 5126,
            "count" : 414,
            "max" : [
                0.42369401454925537,
                2.0218775272369385,
                0.4233059883117676
            ],
            "min" : [
                -0.43259894847869873,
                -0.6982181072235107,
                -0.4233059883117676
            ],
            "type" : "VEC3"
        },
        {
            "bufferView" : 1,
            "componentType" : 5126,
            "count" : 414,
            "type" : "VEC3"
        },
        {
            "bufferView" : 2,
            "componentType" : 5126,
            "count" : 414,
            "type" : "VEC2"
        },
        {
            "bufferView" : 3,
            "componentType" : 5123,
            "count" : 2133,
            "type" : "SCALAR"
        },
        {
            "bufferView" : 7,
            "componentType" : 5126,
            "count" : 72,
            "max" : [
                1.391793966293335,
                1.171310544013977,
                17.964481353759766
            ],
            "min" : [
                -1.3432530164718628,
                -1.4001884460449219,
                12.794937133789062
            ],
            "type" : "VEC3"
        },
        {
            "bufferView" : 8,
            "componentType" : 5126,
            "count" : 72,
            "type" : "VEC3"
        },
        {
            "bufferView" : 9,
            "componentType" : 5126,
            "count" : 72,
            "type" : "VEC2"
        },
        {
            "bufferView" : 10,
            "componentType" : 5123,
            "count" : 72,
            "type" : "SCALAR"
        },
        {
            "bufferView" : 14,
            "componentType" : 5126,
            "count" : 2046,
            "max" : [
                1.4164589643478394,
                1.4591526985168457,
                -11.228376388549805
            ],
            "min" : [
                -1.4351030588150024,
                -1.3830972909927368,
                -14.202766418457031
            ],
            "type" : "VEC3"
        },
        {
            "bufferView" : 15,
            "componentType" : 5126,
            "count" : 2046,
            "type" : "VEC3"
        },
        {
            "bufferView" : 16,
            "componentType" : 5126,
            "count" : 2046,
            "type" : "VEC2"
        },
        {
            "bufferView" : 17,
            "componentType" : 5123,
            "count" : 2046,
            "type" : "SCALAR"
        }
    ],
    "bufferViews" : [
        {
            "buffer" : 0,
            "byteLength" : 4968,
            "byteOffset" : 0
        },
        {
            "buffer" : 0,
            "byteLength" : 4968,
            "byteOffset" : 4968
        },
        {
            "buffer" : 0,
            "byteLength" : 3312,
            "byteOffset" : 9936
        },
        {
            "buffer" : 0,
            "byteLength" : 4266,
            "byteOffset" : 13248
        },
        {
            "buffer" : 0,
            "byteLength" : 177812,
            "byteOffset" : 17516
        },
        {
            "buffer" : 0,
            "byteLength" : 313806,
            "byteOffset" : 195328
        },
        {
            "buffer" : 0,
            "byteLength" : 123776,
            "byteOffset" : 509136
        },
        {
            "buffer" : 0,
            "byteLength" : 864,
            "byteOffset" : 632912
        },
        {
            "buffer" : 0,
            "byteLength" : 864,
            "byteOffset" : 633776
        },
        {
            "buffer" : 0,
            "byteLength" : 576,
            "byteOffset" : 634640
        },
        {
            "buffer" : 0,
            "byteLength" : 144,
            "byteOffset" : 635216
        },
        {
            "buffer" : 0,
            "byteLength" : 611920,
            "byteOffset" : 635360
        },
        {
            "buffer" : 0,
            "byteLength" : 254062,
            "byteOffset" : 1247280
        },
        {
            "buffer" : 0,
            "byteLength" : 339565,
            "byteOffset" : 1501344
        },
        {
            "buffer" : 0,
            "byteLength" : 24552,
            "byteOffset" : 1840912
        },
        {
            "buffer" : 0,
            "byteLength" : 24552,
            "byteOffset" : 1865464
        },
        {
            "buffer" : 0,
            "byteLength" : 16368,
            "byteOffset" : 1890016
        },
        {
            "buffer" : 0,
            "byteLength" : 4092,
            "byteOffset" : 1906384
        },
        {
            "buffer" : 0,
            "byteLength" : 830525,
            "byteOffset" : 1910476
        },
        {
            "buffer" : 0,
            "byteLength" : 174712,
            "byteOffset" : 2741004
        },
        {
            "buffer" : 0,
            "byteLength" : 89744,
            "byteOffset" : 2915716
        }
    ],
    "samplers" : [
        {
            "magFilter" : 9729,
            "minFilter" : 9987
        },
        {
            "magFilter" : 9729,
            "minFilter" : 9987,
            "wrapS" : 33071,
            "wrapT" : 33071
        }
    ],
    "buffers" : [
        {
            "byteLength" : 3005460,
            "uri" : "data:application/octet-stream;base64,"
        }
    ]
}
