{
    "asset" : {
        "generator" : "Khronos glTF Blender I/O v1.6.16",
        "version" : "2.0"
    },
    "scene" : 0,
    "scenes" : [
        {
            "name" : "Scene",
            "nodes" : [
                0,
                1,
                2
            ]
        }
    ],
    "nodes" : [
        {
            "name" : "Hemi",
            "rotation" : [
                0.12875217199325562,
                -0.01435927301645279,
                -0.26217928528785706,
                0.9562838077545166
            ],
            "translation" : [
                8.48536491394043,
                15.610771179199219,
                5.081638336181641
            ]
        },
        {
            "name" : "Spot",
            "rotation" : [
                0.23935344815254211,
                0.21502785384655,
                -0.2130095213651657,
                0.9225507378578186
            ],
            "translation" : [
                7.562456130981445,
                16.339513778686523,
                5.848008155822754
            ]
        },
        {
            "mesh" : 0,
            "name" : "watchtowerHigh",
            "translation" : [
                0,
                0.6714997291564941,
                0
            ]
        }
    ],
    "materials" : [
        {
            "doubleSided" : true,
            "name" : "watchtower",
            "normalTexture" : {
                "index" : 0
            },
            "pbrMetallicRoughness" : {
                "baseColorTexture" : {
                    "index" : 1
                },
                "metallicFactor" : 0,
                "roughnessFactor" : 0.5
            }
        }
    ],
    "meshes" : [
        {
            "name" : "watchtower",
            "primitives" : [
                {
                    "attributes" : {
                        "POSITION" : 0,
                        "NORMAL" : 1,
                        "TEXCOORD_0" : 2
                    },
                    "indices" : 3,
                    "material" : 0
                }
            ]
        }
    ],
    "textures" : [
        {
            "sampler" : 0,
            "source" : 0
        },
        {
            "sampler" : 0,
            "source" : 1
        }
    ],
    "images" : [
        {
            "bufferView" : 4,
            "mimeType" : "image/jpeg",
            "name" : "Wood_Tower_Nor"
        },
        {
            "bufferView" : 5,
            "mimeType" : "image/jpeg",
            "name" : "Wood_Tower_Col"
        }
    ],
    "accessors" : [
        {
            "bufferView" : 0,
            "componentType" : 5126,
            "count" : 4018,
            "max" : [
                2.110931634902954,
                7.648165702819824,
                2.110999822616577
            ],
            "min" : [
                -2.110931634902954,
                0,
                -2.1108622550964355
            ],
            "type" : "VEC3"
        },
        {
            "bufferView" : 1,
            "componentType" : 5126,
            "count" : 4018,
            "type" : "VEC3"
        },
        {
            "bufferView" : 2,
            "componentType" : 5126,
            "count" : 4018,
            "type" : "VEC2"
        },
        {
            "bufferView" : 3,
            "componentType" : 5123,
            "count" : 6108,
            "type" : "SCALAR"
        }
    ],
    "bufferViews" : [
        {
            "buffer" : 0,
            "byteLength" : 48216,
            "byteOffset" : 0
        },
        {
            "buffer" : 0,
            "byteLength" : 48216,
            "byteOffset" : 48216
        },
        {
            "buffer" : 0,
            "byteLength" : 32144,
            "byteOffset" : 96432
        },
        {
            "buffer" : 0,
            "byteLength" : 12216,
            "byteOffset" : 128576
        },
        {
            "buffer" : 0,
            "byteLength" : 1889471,
            "byteOffset" : 140792
        },
        {
            "buffer" : 0,
            "byteLength" : 867722,
            "byteOffset" : 2030264
        }
    ],
    "samplers" : [
        {
            "magFilter" : 9729,
            "minFilter" : 9987
        }
    ],
    "buffers" : [
        {
            "byteLength" : 2897988,
            "uri" : "data:application/octet-stream;base64,"
        }
    ]
}
