{
    "asset" : {
        "generator" : "Khronos glTF Blender I/O v1.6.16",
        "version" : "2.0"
    },
    "scene" : 0,
    "scenes" : [
        {
            "name" : "Scene",
            "nodes" : [
                0,
                1,
                2,
                3,
                4,
                5
            ]
        }
    ],
    "nodes" : [
        {
            "mesh" : 0,
            "name" : "Object_7",
            "rotation" : [
                -0.7059634923934937,
                -0.06518185138702393,
                0.04199846088886261,
                0.7039907574653625
            ],
            "scale" : [
                0.15365803241729736,
                0.15365803241729736,
                0.12072156369686127
            ]
        },
        {
            "mesh" : 1,
            "name" : "Object_11",
            "rotation" : [
                -0.7059634923934937,
                -0.06518185138702393,
                0.04199846088886261,
                0.7039907574653625
            ],
            "scale" : [
                0.14447534084320068,
                0.14447534084320068,
                0.12072156369686127
            ]
        },
        {
            "mesh" : 2,
            "name" : "Object_12",
            "rotation" : [
                -0.7059634923934937,
                -0.06518185138702393,
                0.04199846088886261,
                0.7039907574653625
            ],
            "scale" : [
                0.14447534084320068,
                0.14447534084320068,
                0.12072156369686127
            ]
        },
        {
            "mesh" : 3,
            "name" : "Object_14",
            "rotation" : [
                -0.7059634923934937,
                -0.06518185138702393,
                0.04199846088886261,
                0.7039907574653625
            ],
            "scale" : [
                0.14447534084320068,
                0.14447534084320068,
                0.12072156369686127
            ]
        },
        {
            "mesh" : 4,
            "name" : "Object_15",
            "rotation" : [
                -0.7059634923934937,
                -0.06518185138702393,
                0.04199846088886261,
                0.7039907574653625
            ],
            "scale" : [
                0.14447534084320068,
                0.14447534084320068,
                0.12072156369686127
            ]
        },
        {
            "mesh" : 5,
            "name" : "Object_17",
            "rotation" : [
                -0.7059634923934937,
                -0.06518185138702393,
                0.04199846088886261,
                0.7039907574653625
            ],
            "scale" : [
                0.15365803241729736,
                0.15365803241729736,
                0.12072156369686127
            ]
        }
    ],
    "materials" : [
        {
            "alphaCutoff" : 0.23619119822978973,
            "alphaMode" : "MASK",
            "doubleSided" : true,
            "name" : "lambert14SG",
            "normalTexture" : {
                "index" : 0,
                "scale" : 0.4495251774787903
            },
            "pbrMetallicRoughness" : {
                "baseColorTexture" : {
                    "index" : 1
                },
                "metallicFactor" : 0
            }
        }
    ],
    "meshes" : [
        {
            "name" : "Object_5",
            "primitives" : [
                {
                    "attributes" : {
                        "POSITION" : 0,
                        "NORMAL" : 1,
                        "TEXCOORD_0" : 2
                    },
                    "indices" : 3,
                    "material" : 0
                }
            ]
        },
        {
            "name" : "Object_9",
            "primitives" : [
                {
                    "attributes" : {
                        "POSITION" : 4,
                        "NORMAL" : 5,
                        "TEXCOORD_0" : 6
                    },
                    "indices" : 7,
                    "material" : 0
                }
            ]
        },
        {
            "name" : "Object_10",
            "primitives" : [
                {
                    "attributes" : {
                        "POSITION" : 8,
                        "NORMAL" : 9,
                        "TEXCOORD_0" : 10
                    },
                    "indices" : 11,
                    "material" : 0
                }
            ]
        },
        {
            "name" : "Object_12",
            "primitives" : [
                {
                    "attributes" : {
                        "POSITION" : 12,
                        "NORMAL" : 13,
                        "TEXCOORD_0" : 14
                    },
                    "indices" : 11,
                    "material" : 0
                }
            ]
        },
        {
            "name" : "Object_13",
            "primitives" : [
                {
                    "attributes" : {
                        "POSITION" : 15,
                        "NORMAL" : 16,
                        "TEXCOORD_0" : 17
                    },
                    "indices" : 18,
                    "material" : 0
                }
            ]
        },
        {
            "name" : "Object_15",
            "primitives" : [
                {
                    "attributes" : {
                        "POSITION" : 19,
                        "NORMAL" : 20,
                        "TEXCOORD_0" : 21
                    },
                    "indices" : 22,
                    "material" : 0
                }
            ]
        }
    ],
    "textures" : [
        {
            "sampler" : 0,
            "source" : 0
        },
        {
            "sampler" : 1,
            "source" : 1
        }
    ],
    "images" : [
        {
            "bufferView" : 4,
            "mimeType" : "image/png",
            "name" : "lambert14SG_normal"
        },
        {
            "bufferView" : 5,
            "mimeType" : "image/png",
            "name" : "lambert14SG_baseColor_pixelized"
        }
    ],
    "accessors" : [
        {
            "bufferView" : 0,
            "componentType" : 5126,
            "count" : 226,
            "max" : [
                10.262224197387695,
                10.234265327453613,
                22.660072326660156
            ],
            "min" : [
                -10.513948440551758,
                -9.610621452331543,
                -0.25599461793899536
            ],
            "type" : "VEC3"
        },
        {
            "bufferView" : 1,
            "componentType" : 5126,
            "count" : 226,
            "type" : "VEC3"
        },
        {
            "bufferView" : 2,
            "componentType" : 5126,
            "count" : 226,
            "type" : "VEC2"
        },
        {
            "bufferView" : 3,
            "componentType" : 5123,
            "count" : 588,
            "type" : "SCALAR"
        },
        {
            "bufferView" : 6,
            "componentType" : 5126,
            "count" : 78,
            "max" : [
                8.1956787109375,
                6.24627685546875,
                24.43581199645996
            ],
            "min" : [
                0.838104248046875,
                -0.59124755859375,
                -0.5884590148925781
            ],
            "type" : "VEC3"
        },
        {
            "bufferView" : 7,
            "componentType" : 5126,
            "count" : 78,
            "type" : "VEC3"
        },
        {
            "bufferView" : 8,
            "componentType" : 5126,
            "count" : 78,
            "type" : "VEC2"
        },
        {
            "bufferView" : 9,
            "componentType" : 5123,
            "count" : 324,
            "type" : "SCALAR"
        },
        {
            "bufferView" : 10,
            "componentType" : 5126,
            "count" : 26,
            "max" : [
                0.65606689453125,
                -1.134674072265625,
                20.96562957763672
            ],
            "min" : [
                -1.569549560546875,
                -1.40606689453125,
                0.7469501495361328
            ],
            "type" : "VEC3"
        },
        {
            "bufferView" : 11,
            "componentType" : 5126,
            "count" : 26,
            "type" : "VEC3"
        },
        {
            "bufferView" : 12,
            "componentType" : 5126,
            "count" : 26,
            "type" : "VEC2"
        },
        {
            "bufferView" : 13,
            "componentType" : 5123,
            "count" : 108,
            "type" : "SCALAR"
        },
        {
            "bufferView" : 14,
            "componentType" : 5126,
            "count" : 26,
            "max" : [
                3.0128173828125,
                -4.75628662109375,
                21.235597610473633
            ],
            "min" : [
                0.66705322265625,
                -5.08111572265625,
                0.1108551025390625
            ],
            "type" : "VEC3"
        },
        {
            "bufferView" : 15,
            "componentType" : 5126,
            "count" : 26,
            "type" : "VEC3"
        },
        {
            "bufferView" : 16,
            "componentType" : 5126,
            "count" : 26,
            "type" : "VEC2"
        },
        {
            "bufferView" : 17,
            "componentType" : 5126,
            "count" : 7178,
            "max" : [
                6.66461181640625,
                6.309783935546875,
                18.747661590576172
            ],
            "min" : [
                -7.01873779296875,
                -6.4312744140625,
                2.0277442932128906
            ],
            "type" : "VEC3"
        },
        {
            "bufferView" : 18,
            "componentType" : 5126,
            "count" : 7178,
            "type" : "VEC3"
        },
        {
            "bufferView" : 19,
            "componentType" : 5126,
            "count" : 7178,
            "type" : "VEC2"
        },
        {
            "bufferView" : 20,
            "componentType" : 5123,
            "count" : 7200,
            "type" : "SCALAR"
        },
        {
            "bufferView" : 21,
            "componentType" : 5126,
            "count" : 286,
            "max" : [
                9.8587646484375,
                10.0072021484375,
                20.52269172668457
            ],
            "min" : [
                -10.0489501953125,
                -9.82794189453125,
                0.22147369384765625
            ],
            "type" : "VEC3"
        },
        {
            "bufferView" : 22,
            "componentType" : 5126,
            "count" : 286,
            "type" : "VEC3"
        },
        {
            "bufferView" : 23,
            "componentType" : 5126,
            "count" : 286,
            "type" : "VEC2"
        },
        {
            "bufferView" : 24,
            "componentType" : 5123,
            "count" : 840,
            "type" : "SCALAR"
        }
    ],
    "bufferViews" : [
        {
            "buffer" : 0,
            "byteLength" : 2712,
            "byteOffset" : 0
        },
        {
            "buffer" : 0,
            "byteLength" : 2712,
            "byteOffset" : 2712
        },
        {
            "buffer" : 0,
            "byteLength" : 1808,
            "byteOffset" : 5424
        },
        {
            "buffer" : 0,
            "byteLength" : 1176,
            "byteOffset" : 7232
        },
        {
            "buffer" : 0,
            "byteLength" : 877417,
            "byteOffset" : 8408
        },
        {
            "buffer" : 0,
            "byteLength" : 434795,
            "byteOffset" : 885828
        },
        {
            "buffer" : 0,
            "byteLength" : 936,
            "byteOffset" : 1320624
        },
        {
            "buffer" : 0,
            "byteLength" : 936,
            "byteOffset" : 1321560
        },
        {
            "buffer" : 0,
            "byteLength" : 624,
            "byteOffset" : 1322496
        },
        {
            "buffer" : 0,
            "byteLength" : 648,
            "byteOffset" : 1323120
        },
        {
            "buffer" : 0,
            "byteLength" : 312,
            "byteOffset" : 1323768
        },
        {
            "buffer" : 0,
            "byteLength" : 312,
            "byteOffset" : 1324080
        },
        {
            "buffer" : 0,
            "byteLength" : 208,
            "byteOffset" : 1324392
        },
        {
            "buffer" : 0,
            "byteLength" : 216,
            "byteOffset" : 1324600
        },
        {
            "buffer" : 0,
            "byteLength" : 312,
            "byteOffset" : 1324816
        },
        {
            "buffer" : 0,
            "byteLength" : 312,
            "byteOffset" : 1325128
        },
        {
            "buffer" : 0,
            "byteLength" : 208,
            "byteOffset" : 1325440
        },
        {
            "buffer" : 0,
            "byteLength" : 86136,
            "byteOffset" : 1325648
        },
        {
            "buffer" : 0,
            "byteLength" : 86136,
            "byteOffset" : 1411784
        },
        {
            "buffer" : 0,
            "byteLength" : 57424,
            "byteOffset" : 1497920
        },
        {
            "buffer" : 0,
            "byteLength" : 14400,
            "byteOffset" : 1555344
        },
        {
            "buffer" : 0,
            "byteLength" : 3432,
            "byteOffset" : 1569744
        },
        {
            "buffer" : 0,
            "byteLength" : 3432,
            "byteOffset" : 1573176
        },
        {
            "buffer" : 0,
            "byteLength" : 2288,
            "byteOffset" : 1576608
        },
        {
            "buffer" : 0,
            "byteLength" : 1680,
            "byteOffset" : 1578896
        }
    ],
    "samplers" : [
        {
            "magFilter" : 9729,
            "minFilter" : 9987
        },
        {
            "magFilter" : 9728,
            "minFilter" : 9984,
            "wrapS" : 33071,
            "wrapT" : 33071
        }
    ],
    "buffers" : [
        {
            "byteLength" : 1580576,
            "uri" : "data:application/octet-stream;base64,"
        }
    ]
}
